<svg id="canvas" viewBox="319.558 328.581 1506.285 254.969" xmlns="http://www.w3.org/2000/svg">
  <title>Matthieu Riegler - riegler.fr</title>
  <style>
    @media (prefers-reduced-motion) {
      path {
        animation: none !important;
        stroke-dasharray: unset !important;
      }
    }

    @keyframes grow {
      0% {
        stroke-dashoffset: 1px;
        stroke-dasharray: 0 350px;
        opacity: 0;
      }

      10% {
        opacity: 1;
        transform: translate(0, 1%);
      }

      20% {
        transform: translate(0, 0);
      }

      40% {
        stroke-dasharray: 350px 0;
      }

      85% {
        stroke-dasharray: 350px 0;
      }

      95%,
      to {
        stroke-dasharray: 0 350px;
      }
    }

    path {
      stroke-dashoffset: 1px;
      stroke-dasharray: 350px 0;
      animation: grow 10s ease-out forwards infinite;
      transform-origin: center;
      stroke: #303030;
      animation-delay: 0s;
    }

    @media (prefers-color-scheme:dark) {
      path {
        stroke: #fdfdfd;
      }
    }
  </style>
  <path
    d="M 323.39,335.85 C 324.86 337.23, 327.22 337.44, 331.73 338.61 C 336.24 339.79, 339.27 340.31, 345.94 341.75 C 352.62 343.18, 357.18 344.24, 365.11 345.80 C 373.04 347.35, 377.55 348.27, 385.58 349.52 C 393.61 350.78, 397.83 351.33, 405.24 352.08 C 412.66 352.83, 416.34 353.01, 422.66 353.28 C 428.97 353.54, 431.97 353.42, 436.83 353.39 C 441.69 353.37, 443.86 353.43, 446.97 353.16 C 450.08 352.89, 451.14 352.32, 452.37 352.05 C 453.61 351.78, 453.31 351.16, 453.16 351.80 C 453.01 352.44, 451.60 352.88, 451.61 355.25 C 451.62 357.62, 452.25 359.32, 453.21 363.63 C 454.18 367.94, 454.77 370.69, 456.43 376.80 C 458.09 382.90, 459.09 386.55, 461.53 394.17 C 463.96 401.80, 465.52 406.13, 468.60 414.90 C 471.69 423.67, 473.60 428.53, 476.94 438.03 C 480.29 447.53, 482.32 452.68, 485.32 462.41 C 488.31 472.15, 489.95 477.28, 491.92 486.71 C 493.88 496.15, 494.80 500.95, 495.14 509.59 C 495.49 518.23, 495.35 522.44, 493.63 529.91 C 491.91 537.39, 490.58 540.84, 486.54 546.96 C 482.50 553.08, 479.85 555.84, 473.44 560.50 C 467.03 565.17, 462.87 567.20, 454.50 570.30 C 446.14 573.40, 440.92 574.67, 431.62 576.01 C 422.31 577.36, 416.83 577.43, 407.97 577.02 C 399.11 576.60, 394.29 575.82, 387.30 573.93 C 380.32 572.04, 377.03 570.36, 373.04 567.57 C 369.06 564.78, 368.08 563.10, 367.36 559.98 C 366.65 556.86, 366.85 555.59, 369.48 551.96 C 372.11 548.34, 374.31 546.00, 380.51 541.87 C 386.71 537.74, 391.05 535.37, 400.47 531.31 C 409.90 527.26, 415.81 525.23, 427.64 521.60 C 439.46 517.97, 446.32 516.33, 459.60 513.15 C 472.88 509.98, 480.34 508.64, 494.01 505.73 C 507.68 502.81, 515.08 501.50, 527.95 498.59 C 540.82 495.68, 547.19 494.34, 558.36 491.18 C 569.53 488.01, 574.87 486.36, 583.81 482.77 C 592.75 479.17, 596.80 477.23, 603.08 473.19 C 609.36 469.14, 611.82 466.95, 615.21 462.55 C 618.59 458.16, 619.79 455.59, 620.00 451.21 C 620.21 446.82, 619.19 443.90, 616.26 440.63 C 613.33 437.35, 610.46 435.95, 605.36 434.82 C 600.26 433.69, 596.74 433.78, 590.75 434.99 C 584.76 436.20, 581.06 437.45, 575.42 440.89 C 569.79 444.33, 566.63 446.88, 562.59 452.20 C 558.56 457.52, 556.61 461.11, 555.25 467.49 C 553.89 473.87, 553.89 477.66, 555.78 484.09 C 557.67 490.52, 559.58 494.04, 564.70 499.64 C 569.82 505.25, 573.53 507.98, 581.37 512.10 C 589.22 516.22, 594.26 517.96, 603.93 520.25 C 613.59 522.54, 619.21 523.19, 629.71 523.55 C 640.21 523.91, 646.07 523.48, 656.43 522.05 C 666.79 520.62, 672.16 519.36, 681.49 516.40 C 690.83 513.43, 695.36 511.35, 703.11 507.22 C 710.87 503.09, 714.44 500.51, 720.26 495.74 C 726.08 490.97, 728.47 488.21, 732.20 483.37 C 735.93 478.52, 737.28 476.00, 738.93 471.53 C 740.58 467.05, 741.17 464.73, 740.45 461.00 C 739.73 457.27, 738.34 454.99, 735.34 452.88 C 732.35 450.76, 729.74 450.22, 725.48 450.43 C 721.22 450.63, 718.65 451.55, 714.04 453.90 C 709.43 456.25, 706.74 458.16, 702.45 462.17 C 698.15 466.17, 695.72 468.82, 692.58 473.93 C 689.44 479.04, 687.95 482.25, 686.74 487.71 C 685.54 493.17, 685.46 496.30, 686.57 501.23 C 687.68 506.17, 689.05 508.73, 692.29 512.38 C 695.54 516.03, 698.13 517.60, 702.79 519.49 C 707.45 521.37, 710.40 521.89, 715.60 521.81 C 720.79 521.72, 723.76 521.06, 728.78 519.06 C 733.79 517.06, 736.44 515.44, 740.66 511.81 C 744.88 508.19, 746.82 505.57, 749.89 500.94 C 752.96 496.30, 754.07 493.14, 755.99 488.65 C 757.90 484.16, 759.03 481.61, 759.47 478.48 C 759.91 475.35, 758.99 473.80, 758.19 472.99 C 757.40 472.18, 755.70 472.76, 755.48 474.44 C 755.27 476.12, 755.44 478.02, 757.14 481.39 C 758.84 484.77, 760.75 487.25, 763.99 491.30 C 767.23 495.35, 769.31 497.79, 773.33 501.63 C 777.34 505.48, 779.61 507.50, 784.07 510.51 C 788.54 513.52, 790.99 514.98, 795.65 516.68 C 800.32 518.37, 802.87 519.01, 807.42 518.98 C 811.97 518.95, 814.37 518.41, 818.40 516.54 C 822.44 514.67, 824.33 512.97, 827.59 509.63 C 830.84 506.30, 832.27 503.89, 834.68 499.88 C 837.09 495.86, 838.02 493.18, 839.64 489.57 C 841.27 485.95, 842.27 484.01, 842.81 481.81 C 843.35 479.61, 842.44 478.68, 842.33 478.56 C 842.22 478.44, 841.34 479.44, 842.28 481.22 C 843.21 483.00, 844.43 484.54, 847.00 487.46 C 849.58 490.37, 851.58 492.50, 855.15 495.80 C 858.72 499.10, 860.79 501.12, 864.85 503.95 C 868.91 506.78, 871.12 508.23, 875.43 509.95 C 879.74 511.67, 882.04 512.30, 886.40 512.54 C 890.75 512.77, 893.05 512.40, 897.21 511.13 C 901.37 509.87, 903.48 508.56, 907.20 506.23 C 910.92 503.90, 912.65 502.14, 915.81 499.48 C 918.96 496.83, 920.50 495.16, 922.99 492.95 C 925.49 490.75, 926.57 489.69, 928.28 488.46 C 929.98 487.22, 930.01 486.76, 931.52 486.79 C 933.03 486.81, 933.38 487.54, 935.81 488.57 C 938.25 489.60, 939.92 490.35, 943.69 491.94 C 947.46 493.53, 949.81 494.90, 954.66 496.52 C 959.51 498.13, 962.33 499.14, 967.94 500.02 C 973.55 500.90, 976.76 501.30, 982.71 500.91 C 988.66 500.52, 991.83 500.07, 997.69 498.06 C 1003.55 496.05, 1006.54 494.50, 1012.02 490.84 C 1017.51 487.18, 1020.40 484.83, 1025.10 479.77 C 1029.81 474.72, 1031.94 471.52, 1035.57 465.56 C 1039.19 459.61, 1040.80 456.22, 1043.24 450.01 C 1045.67 443.81, 1046.45 440.40, 1047.73 434.54 C 1049.00 428.69, 1049.41 425.33, 1049.62 420.73 C 1049.82 416.13, 1049.98 413.72, 1048.75 411.53 C 1047.52 409.35, 1045.12 408.89, 1043.49 409.79 C 1041.86 410.70, 1040.41 412.49, 1040.59 416.04 C 1040.77 419.60, 1042.24 422.35, 1044.40 427.56 C 1046.56 432.77, 1048.12 436.28, 1051.40 442.11 C 1054.68 447.93, 1056.79 451.31, 1060.81 456.67 C 1064.83 462.03, 1067.16 464.63, 1071.49 468.91 C 1075.83 473.20, 1078.01 475.30, 1082.49 478.09 C 1086.97 480.87, 1089.30 482.10, 1093.91 482.81 C 1098.52 483.53, 1101.12 483.39, 1105.54 481.67 C 1109.96 479.95, 1112.22 478.26, 1116.00 474.21 C 1119.78 470.16, 1121.52 467.26, 1124.46 461.43 C 1127.39 455.59, 1128.67 451.70, 1130.68 445.03 C 1132.69 438.36, 1133.39 434.34, 1134.52 428.07 C 1135.65 421.81, 1136.11 418.14, 1136.33 413.69 C 1136.54 409.24, 1136.33 407.18, 1135.59 405.83 C 1134.84 404.48, 1132.78 405.15, 1132.58 406.94 C 1132.39 408.73, 1132.84 410.55, 1134.60 414.79 C 1136.36 419.03, 1138.03 422.15, 1141.38 428.13 C 1144.73 434.11, 1146.88 438.07, 1151.35 444.70 C 1155.82 451.33, 1158.35 455.10, 1163.74 461.28 C 1169.14 467.46, 1172.20 470.61, 1178.32 475.61 C 1184.43 480.60, 1187.78 482.99, 1194.33 486.27 C 1200.88 489.55, 1204.37 490.80, 1211.04 492.00 C 1217.72 493.21, 1221.16 493.21, 1227.69 492.28 C 1234.21 491.36, 1237.56 490.20, 1243.68 487.37 C 1249.81 484.55, 1252.93 482.43, 1258.31 478.16 C 1263.69 473.89, 1266.32 471.08, 1270.59 466.03 C 1274.85 460.98, 1276.80 457.93, 1279.65 452.90 C 1282.50 447.88, 1283.69 445.31, 1284.84 440.89 C 1285.99 436.46, 1286.41 434.19, 1285.40 430.79 C 1284.39 427.40, 1282.76 425.59, 1279.79 423.91 C 1276.83 422.24, 1274.26 421.66, 1270.56 422.43 C 1266.85 423.20, 1264.59 424.73, 1261.26 427.76 C 1257.94 430.79, 1256.04 433.05, 1253.93 437.56 C 1251.83 442.07, 1250.80 445.08, 1250.75 450.33 C 1250.71 455.58, 1251.06 458.68, 1253.69 463.82 C 1256.31 468.97, 1258.48 471.72, 1263.87 476.06 C 1269.25 480.40, 1273.06 482.51, 1280.62 485.52 C 1288.18 488.53, 1292.76 489.56, 1301.66 491.09 C 1310.56 492.63, 1315.69 493.15, 1325.14 493.20 C 1334.58 493.26, 1339.65 492.71, 1348.88 491.35 C 1358.12 489.99, 1362.93 488.78, 1371.32 486.40 C 1379.70 484.01, 1383.80 482.42, 1390.80 479.42 C 1397.79 476.43, 1401.06 474.62, 1406.29 471.43 C 1411.51 468.23, 1413.82 466.70, 1416.92 463.46 C 1420.02 460.22, 1421.40 458.44, 1421.78 455.22 C 1422.15 452.00, 1421.19 449.54, 1418.80 447.38 C 1416.40 445.22, 1413.95 444.37, 1409.80 444.40 C 1405.64 444.43, 1402.95 445.40, 1398.03 447.53 C 1393.12 449.66, 1390.00 451.31, 1385.22 455.04 C 1380.45 458.77, 1377.60 461.24, 1374.14 466.19 C 1370.69 471.15, 1368.84 474.26, 1367.95 479.80 C 1367.06 485.34, 1367.31 488.73, 1369.71 493.90 C 1372.10 499.07, 1374.54 501.73, 1379.91 505.65 C 1385.29 509.57, 1389.10 511.39, 1396.59 513.51 C 1404.08 515.63, 1408.81 516.28, 1417.38 516.26 C 1425.95 516.24, 1430.82 515.73, 1439.45 513.40 C 1448.07 511.07, 1452.67 509.35, 1460.52 504.61 C 1468.38 499.88, 1472.41 496.78, 1478.71 489.70 C 1485.02 482.63, 1487.93 478.27, 1492.04 469.23 C 1496.16 460.19, 1497.75 454.77, 1499.28 444.52 C 1500.80 434.27, 1500.80 428.38, 1499.67 417.98 C 1498.53 407.58, 1496.88 402.01, 1493.59 392.53 C 1490.30 383.05, 1487.66 378.31, 1483.21 370.58 C 1478.75 362.84, 1475.85 359.30, 1471.31 353.84 C 1466.76 348.38, 1464.48 346.02, 1460.47 343.28 C 1456.47 340.54, 1454.23 339.44, 1451.29 340.16 C 1448.34 340.87, 1446.32 342.82, 1445.75 346.84 C 1445.18 350.86, 1446.32 353.68, 1448.44 360.25 C 1450.56 366.81, 1452.39 371.13, 1456.34 379.67 C 1460.28 388.21, 1462.99 393.61, 1468.17 402.94 C 1473.35 412.27, 1476.51 417.53, 1482.23 426.33 C 1487.95 435.13, 1491.13 439.53, 1496.77 446.94 C 1502.41 454.36, 1505.22 457.89, 1510.44 463.42 C 1515.65 468.95, 1518.01 471.20, 1522.84 474.59 C 1527.66 477.98, 1529.92 479.21, 1534.57 480.38 C 1539.22 481.54, 1541.65 481.35, 1546.09 480.43 C 1550.53 479.52, 1552.68 478.09, 1556.79 475.79 C 1560.90 473.48, 1562.80 471.59, 1566.64 468.92 C 1570.47 466.25, 1572.26 464.56, 1575.95 462.43 C 1579.65 460.30, 1581.27 459.41, 1585.11 458.26 C 1588.95 457.12, 1590.74 456.93, 1595.14 456.70 C 1599.54 456.47, 1601.96 456.74, 1607.13 457.11 C 1612.30 457.48, 1615.09 458.03, 1621.00 458.55 C 1626.92 459.07, 1630.33 459.55, 1636.71 459.73 C 1643.09 459.91, 1646.60 459.96, 1652.92 459.46 C 1659.24 458.97, 1662.55 458.59, 1668.29 457.25 C 1674.04 455.91, 1676.99 455.02, 1681.64 452.77 C 1686.30 450.53, 1688.55 449.17, 1691.58 446.03 C 1694.61 442.88, 1696.04 440.85, 1696.79 437.06 C 1697.53 433.28, 1697.24 430.47, 1695.29 427.09 C 1693.34 423.72, 1691.10 421.93, 1687.03 420.19 C 1682.95 418.45, 1679.93 418.05, 1674.92 418.39 C 1669.91 418.74, 1666.66 419.39, 1661.96 421.91 C 1657.27 424.43, 1654.32 426.56, 1651.44 431.00 C 1648.56 435.44, 1647.21 438.64, 1647.56 444.13 C 1647.91 449.63, 1649.11 452.89, 1653.17 458.47 C 1657.23 464.05, 1660.46 467.00, 1667.86 472.04 C 1675.26 477.09, 1680.24 479.56, 1690.18 483.71 C 1700.11 487.85, 1706.26 489.70, 1717.54 492.79 C 1728.83 495.87, 1735.30 497.12, 1746.61 499.11 C 1757.91 501.11, 1763.99 501.75, 1774.07 502.75 C 1784.16 503.74, 1789.23 503.92, 1797.04 504.08 C 1804.85 504.23, 1808.19 503.98, 1813.13 503.52 C 1818.07 503.06, 1820.10 502.69, 1821.74 501.79 C 1823.39 500.88, 1823.13 499.41, 1821.35 498.99 C 1819.56 498.56, 1817.67 499.35, 1812.82 499.68 C 1807.96 500.00, 1804.77 500.59, 1797.07 500.62 C 1789.37 500.66, 1784.33 500.69, 1774.34 499.86 C 1764.34 499.02, 1758.28 498.40, 1747.07 496.45 C 1735.86 494.50, 1729.42 493.22, 1718.28 490.10 C 1707.15 486.98, 1701.06 485.06, 1691.39 480.85 C 1681.73 476.63, 1676.89 474.02, 1669.96 469.04 C 1663.03 464.06, 1660.20 460.96, 1656.75 455.93 C 1653.31 450.91, 1652.84 448.21, 1652.75 443.90 C 1652.66 439.59, 1653.89 437.61, 1656.32 434.38 C 1658.76 431.15, 1661.13 429.53, 1664.92 427.76 C 1668.71 425.99, 1671.46 425.62, 1675.27 425.53 C 1679.08 425.44, 1681.34 426.19, 1683.98 427.32 C 1686.63 428.45, 1687.40 429.51, 1688.49 431.19 C 1689.58 432.86, 1689.79 433.62, 1689.45 435.70 C 1689.10 437.78, 1688.84 439.19, 1686.76 441.59 C 1684.69 444.00, 1683.01 445.58, 1679.07 447.72 C 1675.13 449.87, 1672.39 450.93, 1667.08 452.30 C 1661.77 453.68, 1658.57 454.10, 1652.53 454.60 C 1646.49 455.09, 1643.08 455.04, 1636.88 454.78 C 1630.68 454.52, 1627.39 453.98, 1621.53 453.32 C 1615.68 452.65, 1612.95 451.98, 1607.62 451.45 C 1602.29 450.92, 1599.74 450.49, 1594.89 450.64 C 1590.04 450.80, 1587.79 450.98, 1583.37 452.21 C 1578.94 453.44, 1576.87 454.53, 1572.77 456.80 C 1568.67 459.06, 1566.72 460.86, 1562.88 463.55 C 1559.04 466.25, 1557.20 468.05, 1553.57 470.28 C 1549.93 472.51, 1548.28 473.67, 1544.70 474.70 C 1541.13 475.72, 1539.58 476.11, 1535.68 475.38 C 1531.78 474.66, 1529.74 473.95, 1525.21 471.06 C 1520.67 468.17, 1518.18 466.16, 1512.98 460.95 C 1507.79 455.75, 1504.89 452.29, 1499.25 445.04 C 1493.60 437.79, 1490.41 433.42, 1484.76 424.70 C 1479.11 415.97, 1475.98 410.71, 1471.02 401.39 C 1466.05 392.07, 1463.50 386.59, 1459.93 378.08 C 1456.37 369.57, 1454.86 365.03, 1453.20 358.84 C 1451.54 352.65, 1451.87 349.98, 1451.63 347.12 C 1451.38 344.26, 1450.79 344.49, 1451.99 344.54 C 1453.18 344.59, 1454.32 345.00, 1457.59 347.38 C 1460.87 349.75, 1463.80 351.44, 1468.36 356.41 C 1472.92 361.38, 1475.91 364.81, 1480.39 372.24 C 1484.88 379.66, 1487.50 384.31, 1490.78 393.52 C 1494.06 402.73, 1495.67 408.18, 1496.80 418.30 C 1497.92 428.41, 1497.90 434.15, 1496.40 444.09 C 1494.91 454.03, 1493.32 459.28, 1489.32 467.99 C 1485.32 476.69, 1482.49 480.86, 1476.40 487.63 C 1470.31 494.40, 1466.42 497.34, 1458.86 501.83 C 1451.29 506.32, 1446.86 507.94, 1438.57 510.08 C 1430.28 512.21, 1425.57 512.62, 1417.40 512.51 C 1409.24 512.40, 1404.71 511.62, 1397.76 509.51 C 1390.81 507.40, 1387.35 505.50, 1382.64 501.96 C 1377.92 498.43, 1376.11 496.10, 1374.19 491.85 C 1372.28 487.60, 1372.19 485.19, 1373.06 480.70 C 1373.94 476.21, 1375.43 473.57, 1378.57 469.39 C 1381.71 465.22, 1384.37 462.90, 1388.77 459.83 C 1393.18 456.75, 1396.30 455.49, 1400.58 454.01 C 1404.85 452.53, 1407.25 452.72, 1410.15 452.43 C 1413.06 452.15, 1413.97 452.26, 1415.10 452.60 C 1416.23 452.93, 1416.28 452.72, 1415.80 454.11 C 1415.32 455.51, 1415.10 456.86, 1412.71 459.58 C 1410.31 462.29, 1408.53 464.40, 1403.84 467.68 C 1399.15 470.96, 1395.97 472.90, 1389.27 476.00 C 1382.58 479.09, 1378.55 480.73, 1370.37 483.16 C 1362.20 485.59, 1357.45 486.79, 1348.41 488.14 C 1339.36 489.49, 1334.39 490.01, 1325.16 489.90 C 1315.94 489.79, 1310.89 489.21, 1302.29 487.59 C 1293.68 485.98, 1289.24 484.83, 1282.14 481.82 C 1275.04 478.81, 1271.53 476.59, 1266.79 472.53 C 1262.06 468.47, 1260.43 465.91, 1258.46 461.52 C 1256.48 457.14, 1256.55 454.74, 1256.93 450.61 C 1257.30 446.48, 1258.39 444.18, 1260.33 440.86 C 1262.27 437.55, 1264.12 436.00, 1266.63 434.04 C 1269.14 432.07, 1270.86 431.82, 1272.88 431.05 C 1274.90 430.28, 1275.61 429.84, 1276.72 430.17 C 1277.83 430.50, 1277.99 430.83, 1278.42 432.70 C 1278.85 434.57, 1279.53 435.97, 1278.86 439.52 C 1278.19 443.07, 1277.46 445.75, 1275.08 450.45 C 1272.71 455.16, 1270.90 458.21, 1266.99 463.05 C 1263.07 467.90, 1260.55 470.61, 1255.52 474.68 C 1250.49 478.75, 1247.53 480.73, 1241.84 483.41 C 1236.14 486.09, 1233.08 487.15, 1227.07 488.06 C 1221.05 488.97, 1217.96 489.02, 1211.76 487.96 C 1205.56 486.90, 1202.28 485.82, 1196.07 482.76 C 1189.86 479.70, 1186.59 477.48, 1180.71 472.67 C 1174.84 467.87, 1171.82 464.82, 1166.69 458.75 C 1161.55 452.68, 1159.09 448.97, 1155.03 442.33 C 1150.98 435.69, 1149.23 431.62, 1146.43 425.55 C 1143.64 419.48, 1142.94 416.20, 1141.05 412.00 C 1139.17 407.80, 1138.92 405.97, 1137.01 404.57 C 1135.10 403.16, 1132.89 403.25, 1131.50 404.99 C 1130.12 406.73, 1130.48 408.80, 1130.08 413.26 C 1129.67 417.72, 1130.30 421.21, 1129.49 427.28 C 1128.68 433.36, 1127.95 437.27, 1126.03 443.63 C 1124.11 449.99, 1122.71 453.73, 1119.89 459.08 C 1117.08 464.42, 1115.24 466.94, 1111.94 470.36 C 1108.64 473.78, 1106.83 474.82, 1103.40 476.17 C 1099.96 477.52, 1098.40 477.63, 1094.77 477.10 C 1091.14 476.57, 1089.22 475.88, 1085.25 473.53 C 1081.28 471.19, 1079.03 469.34, 1074.93 465.39 C 1070.84 461.44, 1068.49 458.94, 1064.77 453.76 C 1061.04 448.59, 1059.07 445.24, 1056.32 439.53 C 1053.57 433.82, 1052.50 430.22, 1051.00 425.20 C 1049.49 420.17, 1049.89 417.37, 1048.79 414.42 C 1047.68 411.47, 1046.67 410.81, 1045.46 410.46 C 1044.25 410.11, 1043.17 410.63, 1042.73 412.66 C 1042.29 414.69, 1043.26 416.40, 1043.27 420.59 C 1043.28 424.78, 1043.63 428.06, 1042.78 433.62 C 1041.93 439.18, 1041.20 442.47, 1039.00 448.40 C 1036.81 454.33, 1035.22 457.61, 1031.79 463.27 C 1028.35 468.93, 1026.30 471.97, 1021.83 476.71 C 1017.37 481.45, 1014.61 483.62, 1009.47 486.96 C 1004.33 490.30, 1001.55 491.68, 996.14 493.42 C 990.74 495.16, 987.88 495.48, 982.45 495.66 C 977.02 495.84, 974.07 495.40, 968.99 494.32 C 963.91 493.24, 961.41 492.17, 957.05 490.27 C 952.69 488.37, 950.77 486.83, 947.18 484.82 C 943.58 482.80, 942.26 481.33, 939.07 480.18 C 935.88 479.03, 934.30 478.86, 931.23 479.06 C 928.16 479.25, 926.50 479.60, 923.72 481.16 C 920.95 482.73, 919.94 484.36, 917.34 486.88 C 914.75 489.41, 913.58 491.15, 910.76 493.81 C 907.94 496.46, 906.39 498.04, 903.25 500.17 C 900.12 502.30, 898.39 503.35, 895.08 504.47 C 891.78 505.59, 890.15 505.91, 886.72 505.77 C 883.29 505.64, 881.48 505.27, 877.91 503.81 C 874.34 502.35, 872.33 501.15, 868.87 498.47 C 865.42 495.79, 863.64 493.76, 860.64 490.39 C 857.64 487.02, 856.38 484.67, 853.86 481.61 C 851.34 478.55, 850.59 476.58, 848.03 475.08 C 845.48 473.59, 843.66 473.55, 841.07 474.14 C 838.48 474.74, 836.84 475.55, 835.09 478.04 C 833.33 480.53, 833.61 482.93, 832.30 486.60 C 830.98 490.27, 830.43 492.72, 828.50 496.39 C 826.57 500.06, 825.24 502.12, 822.65 504.96 C 820.06 507.79, 818.61 509.04, 815.54 510.57 C 812.48 512.10, 810.90 512.52, 807.33 512.60 C 803.76 512.69, 801.67 512.37, 797.68 510.98 C 793.69 509.59, 791.36 508.40, 787.38 505.66 C 783.41 502.91, 781.23 501.02, 777.80 497.25 C 774.38 493.49, 772.80 490.92, 770.27 486.85 C 767.75 482.77, 767.15 480.01, 765.20 476.87 C 763.24 473.73, 762.55 472.27, 760.50 471.14 C 758.45 470.02, 756.74 470.16, 754.93 471.25 C 753.13 472.34, 752.47 473.55, 751.45 476.58 C 750.43 479.60, 751.14 482.15, 749.84 486.39 C 748.55 490.64, 747.56 493.59, 744.98 497.81 C 742.40 502.03, 740.62 504.34, 736.95 507.50 C 733.29 510.66, 730.93 511.97, 726.64 513.62 C 722.36 515.26, 719.84 515.70, 715.52 515.73 C 711.21 515.76, 708.83 515.25, 705.07 513.78 C 701.31 512.30, 699.30 511.12, 696.72 508.36 C 694.13 505.59, 693.06 503.84, 692.15 499.96 C 691.23 496.07, 691.13 493.53, 692.16 488.92 C 693.19 484.31, 694.46 481.36, 697.32 476.90 C 700.18 472.45, 702.52 470.01, 706.46 466.64 C 710.39 463.27, 713.10 461.77, 716.99 460.05 C 720.87 458.33, 723.04 458.20, 725.89 458.03 C 728.74 457.85, 729.66 458.29, 731.24 459.16 C 732.82 460.03, 733.30 460.24, 733.79 462.37 C 734.28 464.50, 734.73 466.13, 733.70 469.81 C 732.67 473.49, 731.80 476.14, 728.64 480.77 C 725.47 485.40, 723.30 488.22, 717.89 492.94 C 712.48 497.66, 709.04 500.26, 701.57 504.38 C 694.11 508.51, 689.69 510.60, 680.58 513.55 C 671.47 516.51, 666.18 517.77, 656.03 519.17 C 645.88 520.58, 640.09 520.98, 629.82 520.57 C 619.55 520.16, 614.04 519.46, 604.68 517.14 C 595.33 514.82, 590.46 512.99, 583.05 508.97 C 575.63 504.95, 572.25 502.23, 567.61 497.02 C 562.98 491.81, 561.47 488.63, 559.88 482.92 C 558.29 477.21, 558.37 474.03, 559.66 468.47 C 560.95 462.90, 562.66 459.73, 566.33 455.09 C 570.00 450.44, 572.91 448.15, 578.00 445.23 C 583.09 442.31, 586.57 441.38, 591.78 440.49 C 597.00 439.59, 600.05 439.91, 604.06 440.77 C 608.06 441.64, 609.72 442.76, 611.83 444.82 C 613.94 446.87, 614.63 448.00, 614.61 451.04 C 614.58 454.07, 614.39 456.12, 611.70 459.98 C 609.02 463.84, 606.96 466.29, 601.17 470.33 C 595.38 474.37, 591.44 476.48, 582.74 480.18 C 574.04 483.88, 568.75 485.60, 557.69 488.84 C 546.63 492.09, 540.28 493.46, 527.45 496.40 C 514.62 499.35, 507.23 500.66, 493.55 503.56 C 479.87 506.45, 472.40 507.78, 459.06 510.88 C 445.73 513.98, 438.84 515.57, 426.87 519.05 C 414.91 522.53, 408.94 524.42, 399.23 528.30 C 389.51 532.18, 385.03 534.27, 378.31 538.46 C 371.59 542.64, 368.75 544.71, 365.62 549.23 C 362.48 553.75, 361.66 556.66, 362.65 561.05 C 363.63 565.43, 365.80 567.85, 370.55 571.15 C 375.29 574.45, 378.91 575.71, 386.37 577.56 C 393.82 579.40, 398.68 580.04, 407.83 580.38 C 416.97 580.72, 422.52 580.65, 432.09 579.26 C 441.65 577.87, 446.99 576.63, 455.66 573.44 C 464.34 570.24, 468.71 568.20, 475.47 563.29 C 482.22 558.37, 485.14 555.39, 489.43 548.87 C 493.71 542.34, 495.12 538.54, 496.89 530.66 C 498.67 522.77, 498.71 518.36, 498.30 509.45 C 497.90 500.54, 496.90 495.68, 494.87 486.10 C 492.84 476.51, 491.17 471.36, 488.18 461.54 C 485.18 451.72, 483.16 446.56, 479.90 437.00 C 476.65 427.45, 474.79 422.58, 471.92 413.78 C 469.05 404.98, 467.59 400.62, 465.56 392.99 C 463.54 385.37, 462.75 381.72, 461.80 375.64 C 460.85 369.57, 460.98 366.94, 460.81 362.63 C 460.65 358.33, 461.59 356.86, 460.98 354.10 C 460.36 351.35, 459.35 350.47, 457.73 348.84 C 456.11 347.21, 455.18 346.52, 452.88 345.96 C 450.57 345.39, 449.49 345.61, 446.21 346.02 C 442.93 346.43, 441.19 347.44, 436.50 348.00 C 431.80 348.57, 428.92 348.82, 422.74 348.85 C 416.57 348.87, 412.92 348.78, 405.62 348.13 C 398.31 347.49, 394.13 346.95, 386.21 345.63 C 378.29 344.31, 373.83 343.29, 366.00 341.54 C 358.18 339.79, 353.68 338.55, 347.09 336.87 C 340.50 335.20, 337.60 334.19, 333.06 333.16 C 328.52 332.13, 326.34 331.20, 324.40 331.74 C 322.47 332.28, 321.93 334.48, 323.39 335.85"
    stroke="black" stroke-width="1.5" stroke-linecap="round" stroke-linejoin="round" />
</svg>